<svg width="46" height="18" viewBox="0 0 46 18" fill="none" xmlns="http://www.w3.org/2000/svg">
<path d="M24.6293 8.71162C27.0333 7.61531 27.3888 4.03776 23.9694 4.03776H20.0095L18.5461 6.92288H19.2347L17.4844 13.8183H22.0755C25.425 13.8471 26.9313 9.88147 24.6293 8.71162ZM22.0755 11.3083H20.9277L21.3581 9.75034H22.4485C23.7397 10.0099 22.9364 11.3659 22.0755 11.3083ZM22.7642 7.99032H21.7886L22.0755 6.63433H23.1658C24.2194 6.89401 23.3094 8.04806 22.7642 7.99032Z" fill="#005FAF"/>
<path d="M34.0294 7.72343L35.5327 5.05514L33.4986 3.98828L33.2332 4.31754C32.1359 3.73348 26.3896 4.53991 26.0298 10.2393C26.2449 15.0203 31.5732 14.1603 32.0958 13.8569L33.5613 10.811C32.126 11.7615 29.1872 12.2178 29.0629 9.36251C29.3206 7.00792 32.0855 6.12861 34.0294 7.72343ZM41.5311 4.03875H36.9096L35.4406 6.8375H36.1953L32.7124 13.8193H36.0836L36.7757 12.1353H38.8451L38.8967 13.8193H42L41.5311 4.03875ZM37.7133 9.86797L38.845 7.15178L38.8966 9.86797H37.7133Z" fill="#005FAF"/>
<path d="M12.6706 13.352L12.8501 13.2996L12.6532 13.026L12.6706 13.352ZM9.72319 13.3054L9.68847 13.55C9.77782 13.5412 9.88783 13.6186 9.93168 13.4451C9.92839 13.31 9.82604 13.3025 9.72319 13.3054ZM11.1535 13.2996C11.1386 13.233 11.0833 13.184 10.945 13.2298L10.9913 13.4801C11.105 13.4547 11.1634 13.3871 11.1535 13.2996ZM7.92236 13.0948L7.86707 13.3172C7.95593 13.3209 8.06001 13.3934 8.11901 13.2616C8.12296 13.179 8.12633 13.0968 7.92236 13.0948ZM11.0319 13.6664L11.0725 13.9226C11.1673 13.925 11.2539 13.8677 11.2288 13.748C11.2046 13.6328 11.1084 13.651 11.0319 13.6664Z" fill="#005FAF"/>
<path d="M14.7977 4.17014C11.7315 2.59956 8.06949 2.64324 5.14795 4.10164C3.64143 6.76819 3.59346 10.4991 5.14795 13.8036C8.3666 15.4413 11.9265 15.3334 14.8204 13.8721C16.1804 11.0666 16.405 7.69061 14.7977 4.17014ZM9.61912 12.1325L9.43737 12.1346C9.39236 11.6296 9.27232 11.2052 9.01479 10.8804C7.83384 9.3914 5.4198 10.5124 6.04009 7.98189C6.36262 6.6882 10.0415 5.9252 9.61912 12.1325ZM6.04445 9.63313C6.30231 10.1608 7.91785 10.2473 8.47866 10.6513C9.36826 11.292 9.24056 12.1348 9.24056 12.1348H9.03075C8.61771 10.8619 7.45849 11.8698 6.52998 11.5269C5.94704 11.3185 5.5238 10.4148 6.04445 9.63313ZM8.98788 13.7828L9.07477 13.09L9.2311 13.1016L9.16157 13.8643C9.09147 14.2003 8.59328 14.1553 8.53041 13.8352L8.61146 13.0434L8.79675 13.0726L8.71571 13.7362C8.72599 13.9559 8.9451 13.9427 8.98788 13.7828ZM8.15597 13.972L7.97775 13.9288C7.99865 13.7807 8.17333 13.4794 7.82809 13.4794L7.73198 13.8732L7.53534 13.8361L7.74424 12.8908C8.25486 12.9467 8.29954 13.0896 8.30966 13.2429C8.2895 13.3619 8.25799 13.445 8.15605 13.4653C8.27535 13.5742 8.15745 13.8023 8.15597 13.972ZM7.02406 12.9132C6.97494 12.9787 6.87662 13.2076 6.86238 13.39C6.84724 13.5834 7.03196 13.5427 7.07795 13.5201C7.11506 13.502 7.14262 13.3467 7.14262 13.3467L7.01328 13.3033L7.0564 13.1734L7.3475 13.2709L7.20738 13.7587L7.08881 13.7261L7.09959 13.6502C6.95445 13.7167 6.68878 13.6668 6.65759 13.4985C6.62641 13.3632 6.72086 12.9532 6.87316 12.7616C7.02118 12.5753 7.38181 12.7573 7.39061 12.8699C7.39933 12.9821 7.35531 13.1083 7.35531 13.1083L7.21955 13.0826C7.21955 13.0826 7.22786 13.0421 7.23971 12.9782C7.25222 12.9105 7.07672 12.8428 7.02406 12.9132ZM9.67121 13.707L9.63648 14.1263L9.49176 14.1205L9.54384 13.1249C9.90529 13.1324 10.1125 13.1827 10.1056 13.4393C10.084 13.7899 9.80162 13.7111 9.67121 13.707ZM10.0315 12.1347H9.78936C9.76788 11.2725 9.93277 9.69551 9.48221 8.53492C9.14084 7.65512 8.27691 7.25935 8.08545 6.54864C7.78234 5.42371 8.29822 4.20654 10.0315 4.11281C11.5342 4.26792 11.9958 5.4343 11.7395 6.52026C11.2988 7.60606 10.8581 7.45004 10.3094 8.53161C9.86119 9.69104 10.0318 11.21 10.0315 12.1347ZM12.717 13.7304L12.5491 13.7886L12.4969 12.7872L12.6938 12.7348L13.1802 13.5615L13.047 13.6489L12.8848 13.4161L12.6995 13.4859L12.717 13.7304ZM10.7579 12.1347H10.5642C10.7238 9.92044 13.4912 10.4015 13.7442 9.63313C14.1815 10.3949 14.0243 11.0372 13.5676 11.3664C12.4326 12.1849 11.3443 10.7607 10.7579 12.1347ZM11.7848 13.253L11.8717 13.713C11.9257 13.819 11.9624 13.7994 12.0454 13.7887C12.1415 13.7187 12.1215 13.6505 12.1033 13.5616L12.2712 13.5384C12.315 13.8716 12.1574 13.9056 12.0396 13.9284C11.7869 13.9466 11.7374 13.8972 11.669 13.5675C11.6292 13.2853 11.5604 12.9873 11.7964 12.9329C12.1837 12.8734 12.1609 13.0487 12.1959 13.1716L12.028 13.2008C12.0012 13.0952 11.9626 13.0533 11.8774 13.0611C11.7998 13.0969 11.768 13.1549 11.7848 13.253ZM11.4316 13.7304C11.4396 13.8754 11.3907 13.9717 11.2983 14.004L10.9046 14.0855L10.7482 13.1249C10.829 13.1117 11.2252 12.9657 11.3215 13.2298C11.3689 13.391 11.3197 13.4489 11.2635 13.5208C11.3701 13.5552 11.406 13.6386 11.4316 13.7304ZM10.4204 8.9096C11.2976 6.42612 13.305 6.86499 13.7502 7.98197C14.3601 10.2233 12.3961 9.60864 11.1381 10.5277C10.6626 10.9435 10.4124 11.4205 10.4087 12.1437H10.1931C10.1802 10.6872 10.1567 9.6558 10.4204 8.9096Z" fill="#005FAF"/>
</svg>
