<svg width="40" height="40" viewBox="0 0 40 40" fill="none" xmlns="http://www.w3.org/2000/svg">
<rect width="40" height="40" rx="20" fill="#E7F9FF"/>
<path d="M24.44 11.0996C22.63 11.0996 21.01 11.9796 20 13.3296C18.99 11.9796 17.37 11.0996 15.56 11.0996C12.49 11.0996 10 13.5996 10 16.6896C10 17.8796 10.19 18.9796 10.52 19.9996C12.1 24.9996 16.97 27.9896 19.38 28.8096C19.72 28.9296 20.28 28.9296 20.62 28.8096C23.03 27.9896 27.9 24.9996 29.48 19.9996C29.81 18.9796 30 17.8796 30 16.6896C30 13.5996 27.51 11.0996 24.44 11.0996Z" fill="#A9A9A9"/>
</svg>
