<svg width="80" height="80" viewBox="0 0 80 80" fill="none" xmlns="http://www.w3.org/2000/svg">
<g filter="url(#filter0_b_531_15041)">
<rect width="80" height="80" rx="40" fill="white"/>
<path d="M54.1395 55.6383C53.7595 55.6383 53.3795 55.4983 53.0795 55.1983C52.4995 54.6183 52.4995 53.6583 53.0795 53.0783C60.2995 45.8583 60.2995 34.1183 53.0795 26.9183C52.4995 26.3383 52.4995 25.3783 53.0795 24.7983C53.6595 24.2183 54.6195 24.2183 55.1995 24.7983C63.5795 33.1783 63.5795 46.8183 55.1995 55.1983C54.8995 55.4983 54.5195 55.6383 54.1395 55.6383Z" fill="#00A4DF"/>
<path d="M25.8606 55.6383C25.4806 55.6383 25.1006 55.4983 24.8006 55.1983C16.4206 46.8183 16.4206 33.1783 24.8006 24.7983C25.3806 24.2183 26.3406 24.2183 26.9206 24.7983C27.5006 25.3783 27.5006 26.3383 26.9206 26.9183C19.7006 34.1383 19.7006 45.8783 26.9206 53.0783C27.5006 53.6583 27.5006 54.6183 26.9206 55.1983C26.6206 55.4983 26.2406 55.6383 25.8606 55.6383Z" fill="#00A4DF"/>
<path d="M40.0015 61.4199C37.5015 61.3999 35.1215 60.9999 32.9015 60.2199C32.1215 59.9399 31.7015 59.0799 31.9815 58.2999C32.2615 57.5199 33.1015 57.0999 33.9015 57.3799C35.8215 58.0399 37.8615 58.3999 40.0215 58.3999C42.1615 58.3999 44.2215 58.0399 46.1215 57.3799C46.9015 57.1199 47.7615 57.5199 48.0415 58.2999C48.3215 59.0799 47.9015 59.9399 47.1215 60.2199C44.8815 60.9999 42.5015 61.4199 40.0015 61.4199Z" fill="#00A4DF"/>
<path d="M46.6015 22.6781C46.4415 22.6781 46.2615 22.6581 46.1015 22.5981C44.2015 21.9181 42.1415 21.5781 40.0015 21.5781C37.8615 21.5781 35.8215 21.9381 33.9015 22.5981C33.1015 22.8581 32.2615 22.4581 31.9815 21.6781C31.7015 20.8981 32.1215 20.0381 32.9015 19.7581C35.1415 18.9781 37.5215 18.5781 40.0015 18.5781C42.4815 18.5781 44.8815 18.9781 47.1015 19.7581C47.8815 20.0381 48.3015 20.8981 48.0215 21.6781C47.8015 22.2981 47.2215 22.6781 46.6015 22.6781Z" fill="#00A4DF"/>
<path d="M33.4805 40.0003V36.6603C33.4805 32.5003 36.4205 30.8003 40.0205 32.8803L42.9205 34.5603L45.8205 36.2403C49.4205 38.3203 49.4205 41.7203 45.8205 43.8003L42.9205 45.4803L40.0205 47.1603C36.4205 49.2403 33.4805 47.5403 33.4805 43.3803V40.0003Z" fill="#00A4DF"/>
</g>
<defs>
<filter id="filter0_b_531_15041" x="-67" y="-67" width="214" height="214" filterUnits="userSpaceOnUse" color-interpolation-filters="sRGB">
<feFlood flood-opacity="0" result="BackgroundImageFix"/>
<feGaussianBlur in="BackgroundImageFix" stdDeviation="33.5"/>
<feComposite in2="SourceAlpha" operator="in" result="effect1_backgroundBlur_531_15041"/>
<feBlend mode="normal" in="SourceGraphic" in2="effect1_backgroundBlur_531_15041" result="shape"/>
</filter>
</defs>
</svg>
