<svg width="40" height="40" viewBox="0 0 40 40" fill="none" xmlns="http://www.w3.org/2000/svg">
<rect width="40" height="40" rx="20" fill="#E7F9FF"/>
<path d="M24.1391 10.9591L15.1091 13.9591C9.03914 15.9891 9.03914 19.2991 15.1091 21.3191L17.7891 22.2091L18.6791 24.8891C20.6991 30.9591 24.0191 30.9591 26.0391 24.8891L29.0491 15.8691C30.3891 11.8191 28.1891 9.60907 24.1391 10.9591ZM24.4591 16.3391L20.6591 20.1591C20.5091 20.3091 20.3191 20.3791 20.1291 20.3791C19.9391 20.3791 19.7491 20.3091 19.5991 20.1591C19.3091 19.8691 19.3091 19.3891 19.5991 19.0991L23.3991 15.2791C23.6891 14.9891 24.1691 14.9891 24.4591 15.2791C24.7491 15.5691 24.7491 16.0491 24.4591 16.3391Z" fill="#A9A9A9"/>
</svg>
