<svg width="40" height="40" viewBox="0 0 40 40" fill="none" xmlns="http://www.w3.org/2000/svg">
<rect width="40" height="40" rx="20" fill="#E7F9FF"/>
<path d="M25 11H15C12 11 10 12.5 10 16V23C10 26.5 12 28 15 28H18.57C19.16 28 19.64 27.48 19.56 26.89C19.46 26.18 19.48 25.44 19.63 24.68C20.16 22.08 22.3 20.01 24.92 19.58C26.23 19.37 27.48 19.55 28.58 20.03C29.25 20.32 30 19.86 30 19.13V16C30 12.5 28 11 25 11ZM25.47 16.59L22.34 19.09C21.68 19.62 20.84 19.88 20 19.88C19.16 19.88 18.31 19.62 17.66 19.09L14.53 16.59C14.21 16.33 14.16 15.86 14.41 15.53C14.67 15.21 15.14 15.15 15.46 15.41L18.59 17.91C19.35 18.52 20.64 18.52 21.4 17.91L24.53 15.41C24.85 15.15 25.33 15.2 25.58 15.53C25.84 15.86 25.79 16.33 25.47 16.59Z" fill="#A9A9A9"/>
<path d="M26 21C23.24 21 21 23.23 21 26C21 28.76 23.24 31 26 31C28.77 31 31 28.76 31 26C31 23.23 28.77 21 26 21ZM28.05 25.55L27.68 25.91L25.5 28.1C25.4 28.19 25.21 28.29 25.07 28.31L24.09 28.45C23.74 28.5 23.49 28.25 23.54 27.9L23.68 26.92C23.7 26.78 23.79 26.59 23.89 26.49L26.07 24.32L26.43 23.95C26.67 23.71 26.94 23.55 27.22 23.55C27.46 23.55 27.73 23.66 28.03 23.95C28.7 24.6 28.49 25.11 28.05 25.55Z" fill="#004A65"/>
</svg>
